# xmcd
#
# Track frame offsets:
# 150
# 19204
# 35803
# 55572
# 71426
# 91712
# 105635
# 120104
# 131237
# 152085
# 168860
# 188468
# 204749
# 222333
#
# Disc length: 3110 seconds
#
#
# Revision: 0
# Processed by: cddbd v1.5.2PL0 Copyright (c) Steve Scherf et al.
# Submitted via: FreeRIP 2.945 
#
DISCID=b50c240e
DTITLE=Willie Nelson - It Always Will Be
DYEAR=1900
DGENRE=Country
TTITLE0=It Always Will Be
TTITLE1=Picture In A Frame
TTITLE2=The Way You See Me
TTITLE3=Be That As It May (With Paula Nelson)
TTITLE4=You Were It
TTITLE5=Big Booty
TTITLE6=I Didn't Come Here (And I Ain't Leaving)
TTITLE7=My Broken Heart Belongs To You
TTITLE8=Dreams Come True (With Norah Jones)
TTITLE9=Overtime (With Lucinda Williams)
TTITLE10=Tired
TTITLE11=Loves The One And Only Thing
TTITLE12=Texas
TTITLE13=Midnight Rider (With Toby Keith)
EXTD=
EXTT0=
EXTT1=
EXTT2=
EXTT3=
EXTT4=
EXTT5=
EXTT6=
EXTT7=
EXTT8=
EXTT9=
EXTT10=
EXTT11=
EXTT12=
EXTT13=
PLAYORDER=
